<mxfile host="app.diagrams.net" modified="2021-03-14T15:54:53.127Z" agent="5.0 (Windows)" etag="UuJxKjH64BtMl3vIawLQ" version="14.4.8" type="github">
  <diagram id="HcMnewC-m2Wg9fvqHoWo" name="Page-1">
    <mxGraphModel dx="1427" dy="524" grid="1" gridSize="10" guides="1" tooltips="1" connect="1" arrows="1" fold="1" page="0" pageScale="1" pageWidth="2000" pageHeight="2000" background="none" math="0" shadow="0">
      <root>
        <mxCell id="0" />
        <mxCell id="1" parent="0" />
        <mxCell id="KmebMolQnrzNSKVe_BqA-38" value="CLASS" style="whiteSpace=wrap;html=1;align=center;" parent="1" vertex="1">
          <mxGeometry x="420" y="320" width="100" height="40" as="geometry" />
        </mxCell>
        <mxCell id="KmebMolQnrzNSKVe_BqA-39" value="TEACHER" style="whiteSpace=wrap;html=1;align=center;" parent="1" vertex="1">
          <mxGeometry x="870" y="160" width="100" height="40" as="geometry" />
        </mxCell>
        <mxCell id="KmebMolQnrzNSKVe_BqA-40" value="STUDENT" style="whiteSpace=wrap;html=1;align=center;" parent="1" vertex="1">
          <mxGeometry x="-10" y="160" width="100" height="40" as="geometry" />
        </mxCell>
        <mxCell id="kMjQGuNU_TS5V9ZgBK0x-2" value="ACCOUNT" style="whiteSpace=wrap;html=1;align=center;" parent="1" vertex="1">
          <mxGeometry x="420" y="160" width="100" height="40" as="geometry" />
        </mxCell>
        <mxCell id="kMjQGuNU_TS5V9ZgBK0x-3" value="have" style="shape=rhombus;perimeter=rhombusPerimeter;whiteSpace=wrap;html=1;align=center;" parent="1" vertex="1">
          <mxGeometry x="190" y="150" width="120" height="60" as="geometry" />
        </mxCell>
        <mxCell id="kMjQGuNU_TS5V9ZgBK0x-4" value="have" style="shape=rhombus;perimeter=rhombusPerimeter;whiteSpace=wrap;html=1;align=center;" parent="1" vertex="1">
          <mxGeometry x="640" y="150" width="120" height="60" as="geometry" />
        </mxCell>
        <mxCell id="QLgglwV12iiaD7AexI7P-4" value="" style="endArrow=none;html=1;rounded=0;shape=link;" parent="1" edge="1">
          <mxGeometry relative="1" as="geometry">
            <mxPoint x="90" y="180" as="sourcePoint" />
            <mxPoint x="190" y="180" as="targetPoint" />
          </mxGeometry>
        </mxCell>
        <mxCell id="QLgglwV12iiaD7AexI7P-5" value="" style="endArrow=none;html=1;rounded=0;shape=link;" parent="1" edge="1">
          <mxGeometry relative="1" as="geometry">
            <mxPoint x="310" y="180" as="sourcePoint" />
            <mxPoint x="420" y="180" as="targetPoint" />
          </mxGeometry>
        </mxCell>
        <mxCell id="QLgglwV12iiaD7AexI7P-6" value="" style="endArrow=none;html=1;rounded=0;entryX=0;entryY=0.5;entryDx=0;entryDy=0;shape=link;" parent="1" target="kMjQGuNU_TS5V9ZgBK0x-4" edge="1">
          <mxGeometry relative="1" as="geometry">
            <mxPoint x="520" y="180" as="sourcePoint" />
            <mxPoint x="680" y="180" as="targetPoint" />
          </mxGeometry>
        </mxCell>
        <mxCell id="QLgglwV12iiaD7AexI7P-7" value="" style="endArrow=none;html=1;rounded=0;entryX=0;entryY=0.5;entryDx=0;entryDy=0;shape=link;" parent="1" target="KmebMolQnrzNSKVe_BqA-39" edge="1">
          <mxGeometry relative="1" as="geometry">
            <mxPoint x="760" y="180" as="sourcePoint" />
            <mxPoint x="880" y="179.5" as="targetPoint" />
          </mxGeometry>
        </mxCell>
        <mxCell id="QLgglwV12iiaD7AexI7P-8" value="enroll" style="shape=rhombus;perimeter=rhombusPerimeter;whiteSpace=wrap;html=1;align=center;" parent="1" vertex="1">
          <mxGeometry x="-20" y="310" width="120" height="60" as="geometry" />
        </mxCell>
        <mxCell id="QLgglwV12iiaD7AexI7P-9" value="managed_by" style="shape=rhombus;perimeter=rhombusPerimeter;whiteSpace=wrap;html=1;align=center;" parent="1" vertex="1">
          <mxGeometry x="860" y="310" width="120" height="60" as="geometry" />
        </mxCell>
        <mxCell id="QLgglwV12iiaD7AexI7P-10" value="" style="endArrow=none;html=1;rounded=0;entryX=0;entryY=0.5;entryDx=0;entryDy=0;shape=link;" parent="1" target="KmebMolQnrzNSKVe_BqA-38" edge="1">
          <mxGeometry relative="1" as="geometry">
            <mxPoint x="100" y="340" as="sourcePoint" />
            <mxPoint x="260" y="340" as="targetPoint" />
          </mxGeometry>
        </mxCell>
        <mxCell id="QLgglwV12iiaD7AexI7P-11" value="" style="endArrow=none;html=1;rounded=0;entryX=0.5;entryY=0;entryDx=0;entryDy=0;" parent="1" source="KmebMolQnrzNSKVe_BqA-40" target="QLgglwV12iiaD7AexI7P-8" edge="1">
          <mxGeometry relative="1" as="geometry">
            <mxPoint x="40" y="200" as="sourcePoint" />
            <mxPoint x="40" y="360" as="targetPoint" />
          </mxGeometry>
        </mxCell>
        <mxCell id="QLgglwV12iiaD7AexI7P-12" value="" style="endArrow=none;html=1;rounded=0;entryX=0;entryY=0.5;entryDx=0;entryDy=0;exitX=1;exitY=0.5;exitDx=0;exitDy=0;shape=link;" parent="1" source="KmebMolQnrzNSKVe_BqA-38" target="QLgglwV12iiaD7AexI7P-9" edge="1">
          <mxGeometry relative="1" as="geometry">
            <mxPoint x="520" y="340" as="sourcePoint" />
            <mxPoint x="680" y="340" as="targetPoint" />
          </mxGeometry>
        </mxCell>
        <mxCell id="QLgglwV12iiaD7AexI7P-13" value="" style="endArrow=none;html=1;rounded=0;entryX=0.5;entryY=0;entryDx=0;entryDy=0;shape=link;" parent="1" source="KmebMolQnrzNSKVe_BqA-39" target="QLgglwV12iiaD7AexI7P-9" edge="1">
          <mxGeometry relative="1" as="geometry">
            <mxPoint x="920" y="200" as="sourcePoint" />
            <mxPoint x="920" y="360" as="targetPoint" />
          </mxGeometry>
        </mxCell>
        <mxCell id="QLgglwV12iiaD7AexI7P-14" value="have" style="shape=rhombus;perimeter=rhombusPerimeter;whiteSpace=wrap;html=1;align=center;" parent="1" vertex="1">
          <mxGeometry x="410" y="440" width="120" height="60" as="geometry" />
        </mxCell>
        <mxCell id="QLgglwV12iiaD7AexI7P-16" value="" style="endArrow=none;html=1;rounded=0;exitX=0.5;exitY=1;exitDx=0;exitDy=0;entryX=0.5;entryY=0;entryDx=0;entryDy=0;shape=link;" parent="1" source="KmebMolQnrzNSKVe_BqA-38" target="QLgglwV12iiaD7AexI7P-14" edge="1">
          <mxGeometry relative="1" as="geometry">
            <mxPoint x="490" y="390" as="sourcePoint" />
            <mxPoint x="650" y="390" as="targetPoint" />
          </mxGeometry>
        </mxCell>
        <mxCell id="QLgglwV12iiaD7AexI7P-17" value="have" style="shape=rhombus;perimeter=rhombusPerimeter;whiteSpace=wrap;html=1;align=center;" parent="1" vertex="1">
          <mxGeometry x="410" y="720" width="120" height="60" as="geometry" />
        </mxCell>
        <mxCell id="QLgglwV12iiaD7AexI7P-18" value="ASSIGNMENT" style="whiteSpace=wrap;html=1;align=center;" parent="1" vertex="1">
          <mxGeometry x="420" y="590" width="100" height="40" as="geometry" />
        </mxCell>
        <mxCell id="QLgglwV12iiaD7AexI7P-19" value="" style="endArrow=none;html=1;rounded=0;exitX=0.5;exitY=1;exitDx=0;exitDy=0;entryX=0.5;entryY=0;entryDx=0;entryDy=0;shape=link;" parent="1" target="QLgglwV12iiaD7AexI7P-18" edge="1">
          <mxGeometry relative="1" as="geometry">
            <mxPoint x="469.41" y="500" as="sourcePoint" />
            <mxPoint x="469.41" y="580" as="targetPoint" />
          </mxGeometry>
        </mxCell>
        <mxCell id="QLgglwV12iiaD7AexI7P-20" value="ANSWER" style="whiteSpace=wrap;html=1;align=center;" parent="1" vertex="1">
          <mxGeometry x="420" y="870" width="100" height="40" as="geometry" />
        </mxCell>
        <mxCell id="QLgglwV12iiaD7AexI7P-21" value="" style="endArrow=none;html=1;rounded=0;exitX=0.5;exitY=1;exitDx=0;exitDy=0;entryX=0.5;entryY=0;entryDx=0;entryDy=0;shape=link;" parent="1" source="QLgglwV12iiaD7AexI7P-18" target="QLgglwV12iiaD7AexI7P-17" edge="1">
          <mxGeometry relative="1" as="geometry">
            <mxPoint x="460" y="660" as="sourcePoint" />
            <mxPoint x="620" y="660" as="targetPoint" />
          </mxGeometry>
        </mxCell>
        <mxCell id="QLgglwV12iiaD7AexI7P-23" value="" style="endArrow=none;html=1;rounded=0;exitX=0.5;exitY=1;exitDx=0;exitDy=0;entryX=0.5;entryY=0;entryDx=0;entryDy=0;shape=link;" parent="1" source="QLgglwV12iiaD7AexI7P-17" target="QLgglwV12iiaD7AexI7P-20" edge="1">
          <mxGeometry relative="1" as="geometry">
            <mxPoint x="540" y="810" as="sourcePoint" />
            <mxPoint x="700" y="810" as="targetPoint" />
          </mxGeometry>
        </mxCell>
        <mxCell id="QLgglwV12iiaD7AexI7P-24" value="assigned_by" style="shape=rhombus;perimeter=rhombusPerimeter;whiteSpace=wrap;html=1;align=center;" parent="1" vertex="1">
          <mxGeometry x="990" y="580" width="120" height="60" as="geometry" />
        </mxCell>
        <mxCell id="QLgglwV12iiaD7AexI7P-25" value="submit" style="shape=rhombus;perimeter=rhombusPerimeter;whiteSpace=wrap;html=1;align=center;" parent="1" vertex="1">
          <mxGeometry x="-190" y="860" width="120" height="60" as="geometry" />
        </mxCell>
        <mxCell id="QLgglwV12iiaD7AexI7P-26" value="" style="endArrow=none;html=1;rounded=0;exitX=1;exitY=0.5;exitDx=0;exitDy=0;entryX=0;entryY=0.5;entryDx=0;entryDy=0;shape=link;" parent="1" source="QLgglwV12iiaD7AexI7P-25" target="QLgglwV12iiaD7AexI7P-20" edge="1">
          <mxGeometry relative="1" as="geometry">
            <mxPoint x="10" y="880" as="sourcePoint" />
            <mxPoint x="170" y="880" as="targetPoint" />
          </mxGeometry>
        </mxCell>
        <mxCell id="QLgglwV12iiaD7AexI7P-27" value="" style="endArrow=none;html=1;rounded=0;exitX=0.5;exitY=0;exitDx=0;exitDy=0;entryX=0;entryY=0.5;entryDx=0;entryDy=0;" parent="1" source="QLgglwV12iiaD7AexI7P-25" target="KmebMolQnrzNSKVe_BqA-40" edge="1">
          <mxGeometry relative="1" as="geometry">
            <mxPoint x="-150" y="720" as="sourcePoint" />
            <mxPoint x="10" y="720" as="targetPoint" />
            <Array as="points">
              <mxPoint x="-130" y="180" />
            </Array>
          </mxGeometry>
        </mxCell>
        <mxCell id="QLgglwV12iiaD7AexI7P-28" value="" style="endArrow=none;html=1;rounded=0;exitX=0.5;exitY=0;exitDx=0;exitDy=0;entryX=1;entryY=0.5;entryDx=0;entryDy=0;shape=link;" parent="1" source="QLgglwV12iiaD7AexI7P-24" target="KmebMolQnrzNSKVe_BqA-39" edge="1">
          <mxGeometry relative="1" as="geometry">
            <mxPoint x="1070" y="690" as="sourcePoint" />
            <mxPoint x="1230" y="690" as="targetPoint" />
            <Array as="points">
              <mxPoint x="1050" y="180" />
            </Array>
          </mxGeometry>
        </mxCell>
        <mxCell id="QLgglwV12iiaD7AexI7P-29" value="" style="endArrow=none;html=1;rounded=0;exitX=1;exitY=0.5;exitDx=0;exitDy=0;entryX=0;entryY=0.5;entryDx=0;entryDy=0;shape=link;" parent="1" source="QLgglwV12iiaD7AexI7P-18" target="QLgglwV12iiaD7AexI7P-24" edge="1">
          <mxGeometry relative="1" as="geometry">
            <mxPoint x="610" y="890" as="sourcePoint" />
            <mxPoint x="770" y="890" as="targetPoint" />
          </mxGeometry>
        </mxCell>
        <mxCell id="QLgglwV12iiaD7AexI7P-31" value="email" style="ellipse;whiteSpace=wrap;html=1;align=center;fontStyle=4;" parent="1" vertex="1">
          <mxGeometry x="390" y="80" width="100" height="40" as="geometry" />
        </mxCell>
        <mxCell id="QLgglwV12iiaD7AexI7P-32" value="password" style="ellipse;whiteSpace=wrap;html=1;align=center;" parent="1" vertex="1">
          <mxGeometry x="510" y="80" width="100" height="40" as="geometry" />
        </mxCell>
        <mxCell id="QLgglwV12iiaD7AexI7P-33" value="" style="endArrow=none;html=1;rounded=0;entryX=0.5;entryY=1;entryDx=0;entryDy=0;exitX=0.25;exitY=0;exitDx=0;exitDy=0;" parent="1" source="kMjQGuNU_TS5V9ZgBK0x-2" target="QLgglwV12iiaD7AexI7P-31" edge="1">
          <mxGeometry relative="1" as="geometry">
            <mxPoint x="330" y="150" as="sourcePoint" />
            <mxPoint x="490" y="150" as="targetPoint" />
          </mxGeometry>
        </mxCell>
        <mxCell id="QLgglwV12iiaD7AexI7P-34" value="" style="endArrow=none;html=1;rounded=0;entryX=0.307;entryY=0.971;entryDx=0;entryDy=0;exitX=0.75;exitY=0;exitDx=0;exitDy=0;entryPerimeter=0;" parent="1" source="kMjQGuNU_TS5V9ZgBK0x-2" target="QLgglwV12iiaD7AexI7P-32" edge="1">
          <mxGeometry relative="1" as="geometry">
            <mxPoint x="535" y="170" as="sourcePoint" />
            <mxPoint x="530" y="130" as="targetPoint" />
          </mxGeometry>
        </mxCell>
        <mxCell id="QLgglwV12iiaD7AexI7P-35" value="email" style="ellipse;whiteSpace=wrap;html=1;align=center;fontStyle=4;" parent="1" vertex="1">
          <mxGeometry x="-140" y="100" width="100" height="40" as="geometry" />
        </mxCell>
        <mxCell id="QLgglwV12iiaD7AexI7P-36" value="student_id" style="ellipse;whiteSpace=wrap;html=1;align=center;" parent="1" vertex="1">
          <mxGeometry x="-60" y="60" width="100" height="40" as="geometry" />
        </mxCell>
        <mxCell id="QLgglwV12iiaD7AexI7P-37" value="name" style="ellipse;whiteSpace=wrap;html=1;align=center;" parent="1" vertex="1">
          <mxGeometry x="50" y="90" width="100" height="40" as="geometry" />
        </mxCell>
        <mxCell id="QLgglwV12iiaD7AexI7P-38" value="" style="endArrow=none;html=1;rounded=0;exitX=1;exitY=1;exitDx=0;exitDy=0;entryX=0.173;entryY=-0.029;entryDx=0;entryDy=0;entryPerimeter=0;" parent="1" source="QLgglwV12iiaD7AexI7P-35" target="KmebMolQnrzNSKVe_BqA-40" edge="1">
          <mxGeometry relative="1" as="geometry">
            <mxPoint x="-30" y="140" as="sourcePoint" />
            <mxPoint x="130" y="140" as="targetPoint" />
          </mxGeometry>
        </mxCell>
        <mxCell id="QLgglwV12iiaD7AexI7P-39" value="" style="endArrow=none;html=1;rounded=0;exitX=0.5;exitY=1;exitDx=0;exitDy=0;entryX=0.5;entryY=0;entryDx=0;entryDy=0;" parent="1" source="QLgglwV12iiaD7AexI7P-36" target="KmebMolQnrzNSKVe_BqA-40" edge="1">
          <mxGeometry relative="1" as="geometry">
            <mxPoint x="10" y="130" as="sourcePoint" />
            <mxPoint x="170" y="130" as="targetPoint" />
          </mxGeometry>
        </mxCell>
        <mxCell id="QLgglwV12iiaD7AexI7P-40" value="" style="endArrow=none;html=1;rounded=0;exitX=0.5;exitY=1;exitDx=0;exitDy=0;entryX=0.75;entryY=0;entryDx=0;entryDy=0;" parent="1" source="QLgglwV12iiaD7AexI7P-37" target="KmebMolQnrzNSKVe_BqA-40" edge="1">
          <mxGeometry relative="1" as="geometry">
            <mxPoint x="110" y="140" as="sourcePoint" />
            <mxPoint x="270" y="140" as="targetPoint" />
          </mxGeometry>
        </mxCell>
        <mxCell id="QLgglwV12iiaD7AexI7P-41" value="first_name" style="ellipse;whiteSpace=wrap;html=1;align=center;" parent="1" vertex="1">
          <mxGeometry x="80" y="10" width="100" height="40" as="geometry" />
        </mxCell>
        <mxCell id="QLgglwV12iiaD7AexI7P-42" value="last_name" style="ellipse;whiteSpace=wrap;html=1;align=center;" parent="1" vertex="1">
          <mxGeometry x="180" y="40" width="100" height="40" as="geometry" />
        </mxCell>
        <mxCell id="QLgglwV12iiaD7AexI7P-44" value="" style="endArrow=none;html=1;rounded=0;entryX=0.5;entryY=0;entryDx=0;entryDy=0;" parent="1" source="QLgglwV12iiaD7AexI7P-41" target="QLgglwV12iiaD7AexI7P-37" edge="1">
          <mxGeometry relative="1" as="geometry">
            <mxPoint x="150" y="110" as="sourcePoint" />
            <mxPoint x="310" y="110" as="targetPoint" />
          </mxGeometry>
        </mxCell>
        <mxCell id="QLgglwV12iiaD7AexI7P-45" value="" style="endArrow=none;html=1;rounded=0;exitX=0;exitY=1;exitDx=0;exitDy=0;entryX=1;entryY=0;entryDx=0;entryDy=0;" parent="1" source="QLgglwV12iiaD7AexI7P-42" target="QLgglwV12iiaD7AexI7P-37" edge="1">
          <mxGeometry relative="1" as="geometry">
            <mxPoint x="180" y="110" as="sourcePoint" />
            <mxPoint x="340" y="110" as="targetPoint" />
          </mxGeometry>
        </mxCell>
        <mxCell id="QLgglwV12iiaD7AexI7P-46" value="name" style="ellipse;whiteSpace=wrap;html=1;align=center;" parent="1" vertex="1">
          <mxGeometry x="935" y="90" width="100" height="40" as="geometry" />
        </mxCell>
        <mxCell id="QLgglwV12iiaD7AexI7P-47" value="" style="endArrow=none;html=1;rounded=0;exitX=0.5;exitY=1;exitDx=0;exitDy=0;entryX=0.75;entryY=0;entryDx=0;entryDy=0;" parent="1" source="QLgglwV12iiaD7AexI7P-46" edge="1">
          <mxGeometry relative="1" as="geometry">
            <mxPoint x="995" y="140" as="sourcePoint" />
            <mxPoint x="950" y="160" as="targetPoint" />
          </mxGeometry>
        </mxCell>
        <mxCell id="QLgglwV12iiaD7AexI7P-48" value="first_name" style="ellipse;whiteSpace=wrap;html=1;align=center;" parent="1" vertex="1">
          <mxGeometry x="965" y="10" width="100" height="40" as="geometry" />
        </mxCell>
        <mxCell id="QLgglwV12iiaD7AexI7P-49" value="last_name" style="ellipse;whiteSpace=wrap;html=1;align=center;" parent="1" vertex="1">
          <mxGeometry x="1065" y="40" width="100" height="40" as="geometry" />
        </mxCell>
        <mxCell id="QLgglwV12iiaD7AexI7P-50" value="" style="endArrow=none;html=1;rounded=0;entryX=0.5;entryY=0;entryDx=0;entryDy=0;" parent="1" source="QLgglwV12iiaD7AexI7P-48" target="QLgglwV12iiaD7AexI7P-46" edge="1">
          <mxGeometry relative="1" as="geometry">
            <mxPoint x="1035" y="110" as="sourcePoint" />
            <mxPoint x="1195" y="110" as="targetPoint" />
          </mxGeometry>
        </mxCell>
        <mxCell id="QLgglwV12iiaD7AexI7P-51" value="" style="endArrow=none;html=1;rounded=0;exitX=0;exitY=1;exitDx=0;exitDy=0;entryX=1;entryY=0;entryDx=0;entryDy=0;" parent="1" source="QLgglwV12iiaD7AexI7P-49" target="QLgglwV12iiaD7AexI7P-46" edge="1">
          <mxGeometry relative="1" as="geometry">
            <mxPoint x="1065" y="110" as="sourcePoint" />
            <mxPoint x="1225" y="110" as="targetPoint" />
          </mxGeometry>
        </mxCell>
        <mxCell id="QLgglwV12iiaD7AexI7P-52" value="teacher_id" style="ellipse;whiteSpace=wrap;html=1;align=center;" parent="1" vertex="1">
          <mxGeometry x="840" y="50" width="100" height="40" as="geometry" />
        </mxCell>
        <mxCell id="QLgglwV12iiaD7AexI7P-53" value="" style="endArrow=none;html=1;rounded=0;exitX=0.5;exitY=0;exitDx=0;exitDy=0;" parent="1" source="KmebMolQnrzNSKVe_BqA-39" target="QLgglwV12iiaD7AexI7P-52" edge="1">
          <mxGeometry relative="1" as="geometry">
            <mxPoint x="750" y="140" as="sourcePoint" />
            <mxPoint x="910" y="140" as="targetPoint" />
          </mxGeometry>
        </mxCell>
        <mxCell id="QLgglwV12iiaD7AexI7P-54" value="email" style="ellipse;whiteSpace=wrap;html=1;align=center;fontStyle=4;" parent="1" vertex="1">
          <mxGeometry x="760" y="90" width="100" height="40" as="geometry" />
        </mxCell>
        <mxCell id="QLgglwV12iiaD7AexI7P-55" value="" style="endArrow=none;html=1;rounded=0;exitX=1;exitY=1;exitDx=0;exitDy=0;" parent="1" source="QLgglwV12iiaD7AexI7P-54" edge="1">
          <mxGeometry relative="1" as="geometry">
            <mxPoint x="710" y="140" as="sourcePoint" />
            <mxPoint x="886" y="159" as="targetPoint" />
          </mxGeometry>
        </mxCell>
        <mxCell id="QLgglwV12iiaD7AexI7P-57" value="assignment_id" style="ellipse;whiteSpace=wrap;html=1;align=center;fontStyle=4;" parent="1" vertex="1">
          <mxGeometry x="510" y="490" width="100" height="40" as="geometry" />
        </mxCell>
        <mxCell id="QLgglwV12iiaD7AexI7P-58" value="assign_date" style="ellipse;whiteSpace=wrap;html=1;align=center;" parent="1" vertex="1">
          <mxGeometry x="580" y="530" width="100" height="40" as="geometry" />
        </mxCell>
        <mxCell id="QLgglwV12iiaD7AexI7P-59" value="due_date" style="ellipse;whiteSpace=wrap;html=1;align=center;" parent="1" vertex="1">
          <mxGeometry x="580" y="630" width="100" height="40" as="geometry" />
        </mxCell>
        <mxCell id="QLgglwV12iiaD7AexI7P-60" value="description" style="ellipse;whiteSpace=wrap;html=1;align=center;" parent="1" vertex="1">
          <mxGeometry x="310" y="520" width="100" height="40" as="geometry" />
        </mxCell>
        <mxCell id="QLgglwV12iiaD7AexI7P-61" value="marks" style="ellipse;whiteSpace=wrap;html=1;align=center;" parent="1" vertex="1">
          <mxGeometry x="270" y="590" width="100" height="40" as="geometry" />
        </mxCell>
        <mxCell id="QLgglwV12iiaD7AexI7P-67" value="" style="endArrow=none;html=1;rounded=0;entryX=0;entryY=0.5;entryDx=0;entryDy=0;exitX=1;exitY=0.75;exitDx=0;exitDy=0;" parent="1" source="QLgglwV12iiaD7AexI7P-18" target="QLgglwV12iiaD7AexI7P-59" edge="1">
          <mxGeometry relative="1" as="geometry">
            <mxPoint x="220" y="480" as="sourcePoint" />
            <mxPoint x="380" y="480" as="targetPoint" />
          </mxGeometry>
        </mxCell>
        <mxCell id="QLgglwV12iiaD7AexI7P-68" value="" style="endArrow=none;html=1;rounded=0;entryX=0;entryY=0.5;entryDx=0;entryDy=0;exitX=1;exitY=0.25;exitDx=0;exitDy=0;" parent="1" source="QLgglwV12iiaD7AexI7P-18" target="QLgglwV12iiaD7AexI7P-58" edge="1">
          <mxGeometry relative="1" as="geometry">
            <mxPoint x="240" y="500" as="sourcePoint" />
            <mxPoint x="400" y="500" as="targetPoint" />
          </mxGeometry>
        </mxCell>
        <mxCell id="QLgglwV12iiaD7AexI7P-69" value="" style="endArrow=none;html=1;rounded=0;entryX=0;entryY=1;entryDx=0;entryDy=0;exitX=0.872;exitY=0.001;exitDx=0;exitDy=0;exitPerimeter=0;" parent="1" source="QLgglwV12iiaD7AexI7P-18" target="QLgglwV12iiaD7AexI7P-57" edge="1">
          <mxGeometry relative="1" as="geometry">
            <mxPoint x="230" y="490" as="sourcePoint" />
            <mxPoint x="390" y="490" as="targetPoint" />
          </mxGeometry>
        </mxCell>
        <mxCell id="QLgglwV12iiaD7AexI7P-70" value="" style="endArrow=none;html=1;rounded=0;entryX=0;entryY=0.5;entryDx=0;entryDy=0;exitX=1;exitY=0.5;exitDx=0;exitDy=0;" parent="1" source="QLgglwV12iiaD7AexI7P-61" target="QLgglwV12iiaD7AexI7P-18" edge="1">
          <mxGeometry relative="1" as="geometry">
            <mxPoint x="240" y="500" as="sourcePoint" />
            <mxPoint x="400" y="500" as="targetPoint" />
          </mxGeometry>
        </mxCell>
        <mxCell id="QLgglwV12iiaD7AexI7P-71" value="" style="endArrow=none;html=1;rounded=0;entryX=0.189;entryY=0.001;entryDx=0;entryDy=0;entryPerimeter=0;" parent="1" source="QLgglwV12iiaD7AexI7P-60" target="QLgglwV12iiaD7AexI7P-18" edge="1">
          <mxGeometry relative="1" as="geometry">
            <mxPoint x="250" y="510" as="sourcePoint" />
            <mxPoint x="410" y="510" as="targetPoint" />
          </mxGeometry>
        </mxCell>
        <mxCell id="QLgglwV12iiaD7AexI7P-73" value="Attribute" style="ellipse;whiteSpace=wrap;html=1;align=center;" parent="1" vertex="1">
          <mxGeometry x="540" y="810" width="100" height="40" as="geometry" />
        </mxCell>
        <mxCell id="QLgglwV12iiaD7AexI7P-74" value="Attribute" style="ellipse;whiteSpace=wrap;html=1;align=center;" parent="1" vertex="1">
          <mxGeometry x="600" y="860" width="100" height="40" as="geometry" />
        </mxCell>
        <mxCell id="QLgglwV12iiaD7AexI7P-75" value="Attribute" style="ellipse;whiteSpace=wrap;html=1;align=center;" parent="1" vertex="1">
          <mxGeometry x="580" y="920" width="100" height="40" as="geometry" />
        </mxCell>
        <mxCell id="QLgglwV12iiaD7AexI7P-76" value="" style="endArrow=none;html=1;rounded=0;entryX=0;entryY=1;entryDx=0;entryDy=0;exitX=0.75;exitY=0;exitDx=0;exitDy=0;" parent="1" source="QLgglwV12iiaD7AexI7P-20" target="QLgglwV12iiaD7AexI7P-73" edge="1">
          <mxGeometry relative="1" as="geometry">
            <mxPoint x="250" y="960" as="sourcePoint" />
            <mxPoint x="410" y="960" as="targetPoint" />
          </mxGeometry>
        </mxCell>
        <mxCell id="QLgglwV12iiaD7AexI7P-77" value="" style="endArrow=none;html=1;rounded=0;entryX=0;entryY=0.5;entryDx=0;entryDy=0;exitX=1;exitY=0.25;exitDx=0;exitDy=0;" parent="1" source="QLgglwV12iiaD7AexI7P-20" target="QLgglwV12iiaD7AexI7P-74" edge="1">
          <mxGeometry relative="1" as="geometry">
            <mxPoint x="280" y="939.58" as="sourcePoint" />
            <mxPoint x="440" y="939.58" as="targetPoint" />
          </mxGeometry>
        </mxCell>
        <mxCell id="QLgglwV12iiaD7AexI7P-78" value="" style="endArrow=none;html=1;rounded=0;entryX=0;entryY=0;entryDx=0;entryDy=0;exitX=1;exitY=0.75;exitDx=0;exitDy=0;" parent="1" source="QLgglwV12iiaD7AexI7P-20" target="QLgglwV12iiaD7AexI7P-75" edge="1">
          <mxGeometry relative="1" as="geometry">
            <mxPoint x="260" y="970" as="sourcePoint" />
            <mxPoint x="420" y="970" as="targetPoint" />
          </mxGeometry>
        </mxCell>
        <mxCell id="QLgglwV12iiaD7AexI7P-79" value="class_name" style="ellipse;whiteSpace=wrap;html=1;align=center;" parent="1" vertex="1">
          <mxGeometry x="540" y="230" width="100" height="40" as="geometry" />
        </mxCell>
        <mxCell id="QLgglwV12iiaD7AexI7P-80" value="teacher_id" style="ellipse;whiteSpace=wrap;html=1;align=center;" parent="1" vertex="1">
          <mxGeometry x="430" y="220" width="100" height="40" as="geometry" />
        </mxCell>
        <mxCell id="QLgglwV12iiaD7AexI7P-81" value="student_id" style="ellipse;whiteSpace=wrap;html=1;align=center;" parent="1" vertex="1">
          <mxGeometry x="330" y="240" width="100" height="40" as="geometry" />
        </mxCell>
        <mxCell id="QLgglwV12iiaD7AexI7P-82" value="subject" style="ellipse;whiteSpace=wrap;html=1;align=center;" parent="1" vertex="1">
          <mxGeometry x="580" y="280" width="100" height="40" as="geometry" />
        </mxCell>
        <mxCell id="QLgglwV12iiaD7AexI7P-84" value="class_id" style="ellipse;whiteSpace=wrap;html=1;align=center;fontStyle=4;" parent="1" vertex="1">
          <mxGeometry x="280" y="290" width="100" height="40" as="geometry" />
        </mxCell>
        <mxCell id="QLgglwV12iiaD7AexI7P-85" value="" style="endArrow=none;html=1;rounded=0;entryX=1;entryY=0.5;entryDx=0;entryDy=0;exitX=0;exitY=0.25;exitDx=0;exitDy=0;" parent="1" source="KmebMolQnrzNSKVe_BqA-38" target="QLgglwV12iiaD7AexI7P-84" edge="1">
          <mxGeometry relative="1" as="geometry">
            <mxPoint x="260" y="400" as="sourcePoint" />
            <mxPoint x="420" y="400" as="targetPoint" />
          </mxGeometry>
        </mxCell>
        <mxCell id="QLgglwV12iiaD7AexI7P-86" value="" style="endArrow=none;html=1;rounded=0;entryX=1;entryY=1;entryDx=0;entryDy=0;exitX=0.25;exitY=0;exitDx=0;exitDy=0;" parent="1" source="KmebMolQnrzNSKVe_BqA-38" target="QLgglwV12iiaD7AexI7P-81" edge="1">
          <mxGeometry relative="1" as="geometry">
            <mxPoint x="250" y="380" as="sourcePoint" />
            <mxPoint x="410" y="380" as="targetPoint" />
          </mxGeometry>
        </mxCell>
        <mxCell id="QLgglwV12iiaD7AexI7P-87" value="" style="endArrow=none;html=1;rounded=0;entryX=0.5;entryY=1;entryDx=0;entryDy=0;exitX=0.5;exitY=0;exitDx=0;exitDy=0;" parent="1" source="KmebMolQnrzNSKVe_BqA-38" target="QLgglwV12iiaD7AexI7P-80" edge="1">
          <mxGeometry relative="1" as="geometry">
            <mxPoint x="270" y="410" as="sourcePoint" />
            <mxPoint x="430" y="410" as="targetPoint" />
          </mxGeometry>
        </mxCell>
        <mxCell id="QLgglwV12iiaD7AexI7P-88" value="" style="endArrow=none;html=1;rounded=0;entryX=0;entryY=1;entryDx=0;entryDy=0;exitX=0.75;exitY=0;exitDx=0;exitDy=0;" parent="1" source="KmebMolQnrzNSKVe_BqA-38" target="QLgglwV12iiaD7AexI7P-79" edge="1">
          <mxGeometry relative="1" as="geometry">
            <mxPoint x="280" y="420" as="sourcePoint" />
            <mxPoint x="440" y="420" as="targetPoint" />
          </mxGeometry>
        </mxCell>
        <mxCell id="QLgglwV12iiaD7AexI7P-89" value="" style="endArrow=none;html=1;rounded=0;entryX=0;entryY=1;entryDx=0;entryDy=0;exitX=1;exitY=0.25;exitDx=0;exitDy=0;" parent="1" source="KmebMolQnrzNSKVe_BqA-38" target="QLgglwV12iiaD7AexI7P-82" edge="1">
          <mxGeometry relative="1" as="geometry">
            <mxPoint x="290" y="430" as="sourcePoint" />
            <mxPoint x="450" y="430" as="targetPoint" />
          </mxGeometry>
        </mxCell>
        <mxCell id="QLgglwV12iiaD7AexI7P-90" value="1" style="text;html=1;align=center;verticalAlign=middle;resizable=0;points=[];autosize=1;" parent="1" vertex="1">
          <mxGeometry x="310" y="160" width="20" height="20" as="geometry" />
        </mxCell>
        <mxCell id="QLgglwV12iiaD7AexI7P-91" value="1" style="text;html=1;align=center;verticalAlign=middle;resizable=0;points=[];autosize=1;" parent="1" vertex="1">
          <mxGeometry x="470" y="420" width="20" height="20" as="geometry" />
        </mxCell>
        <mxCell id="QLgglwV12iiaD7AexI7P-92" value="1" style="text;html=1;align=center;verticalAlign=middle;resizable=0;points=[];autosize=1;" parent="1" vertex="1">
          <mxGeometry x="900" y="280" width="20" height="20" as="geometry" />
        </mxCell>
        <mxCell id="QLgglwV12iiaD7AexI7P-93" value="1" style="text;html=1;align=center;verticalAlign=middle;resizable=0;points=[];autosize=1;" parent="1" vertex="1">
          <mxGeometry x="470" y="500" width="20" height="20" as="geometry" />
        </mxCell>
        <mxCell id="QLgglwV12iiaD7AexI7P-94" value="1" style="text;html=1;align=center;verticalAlign=middle;resizable=0;points=[];autosize=1;" parent="1" vertex="1">
          <mxGeometry x="760" y="160" width="20" height="20" as="geometry" />
        </mxCell>
        <mxCell id="QLgglwV12iiaD7AexI7P-95" value="1" style="text;html=1;align=center;verticalAlign=middle;resizable=0;points=[];autosize=1;" parent="1" vertex="1">
          <mxGeometry x="170" y="160" width="20" height="20" as="geometry" />
        </mxCell>
        <mxCell id="QLgglwV12iiaD7AexI7P-96" value="1" style="text;html=1;align=center;verticalAlign=middle;resizable=0;points=[];autosize=1;" parent="1" vertex="1">
          <mxGeometry x="620" y="160" width="20" height="20" as="geometry" />
        </mxCell>
        <mxCell id="QLgglwV12iiaD7AexI7P-97" value="N" style="text;html=1;align=center;verticalAlign=middle;resizable=0;points=[];autosize=1;" parent="1" vertex="1">
          <mxGeometry x="840" y="320" width="20" height="20" as="geometry" />
        </mxCell>
        <mxCell id="QLgglwV12iiaD7AexI7P-98" value="N" style="text;html=1;align=center;verticalAlign=middle;resizable=0;points=[];autosize=1;" parent="1" vertex="1">
          <mxGeometry x="100" y="320" width="20" height="20" as="geometry" />
        </mxCell>
        <mxCell id="QLgglwV12iiaD7AexI7P-99" value="N" style="text;html=1;align=center;verticalAlign=middle;resizable=0;points=[];autosize=1;" parent="1" vertex="1">
          <mxGeometry x="40" y="280" width="20" height="20" as="geometry" />
        </mxCell>
        <mxCell id="QLgglwV12iiaD7AexI7P-102" value="1" style="text;html=1;align=center;verticalAlign=middle;resizable=0;points=[];autosize=1;" parent="1" vertex="1">
          <mxGeometry x="470" y="780" width="20" height="20" as="geometry" />
        </mxCell>
        <mxCell id="QLgglwV12iiaD7AexI7P-103" value="1" style="text;html=1;align=center;verticalAlign=middle;resizable=0;points=[];autosize=1;" parent="1" vertex="1">
          <mxGeometry x="470" y="700" width="20" height="20" as="geometry" />
        </mxCell>
        <mxCell id="QLgglwV12iiaD7AexI7P-104" value="1" style="text;html=1;align=center;verticalAlign=middle;resizable=0;points=[];autosize=1;" parent="1" vertex="1">
          <mxGeometry x="-130" y="830" width="20" height="20" as="geometry" />
        </mxCell>
        <mxCell id="QLgglwV12iiaD7AexI7P-106" value="1" style="text;html=1;align=center;verticalAlign=middle;resizable=0;points=[];autosize=1;" parent="1" vertex="1">
          <mxGeometry x="-70" y="870" width="20" height="20" as="geometry" />
        </mxCell>
        <mxCell id="QLgglwV12iiaD7AexI7P-107" value="1" style="text;html=1;align=center;verticalAlign=middle;resizable=0;points=[];autosize=1;" parent="1" vertex="1">
          <mxGeometry x="1030" y="550" width="20" height="20" as="geometry" />
        </mxCell>
        <mxCell id="QLgglwV12iiaD7AexI7P-108" value="1" style="text;html=1;align=center;verticalAlign=middle;resizable=0;points=[];autosize=1;" parent="1" vertex="1">
          <mxGeometry x="965" y="590" width="20" height="20" as="geometry" />
        </mxCell>
        <mxCell id="V2wDVN2zFgDByuxdTgy--1" value="enroll_id" style="ellipse;whiteSpace=wrap;html=1;align=center;fontStyle=4;" parent="1" vertex="1">
          <mxGeometry x="-80" y="410" width="100" height="40" as="geometry" />
        </mxCell>
        <mxCell id="V2wDVN2zFgDByuxdTgy--2" value="" style="endArrow=none;html=1;rounded=0;exitX=0;exitY=1;exitDx=0;exitDy=0;entryX=0.5;entryY=0;entryDx=0;entryDy=0;" parent="1" source="QLgglwV12iiaD7AexI7P-8" target="V2wDVN2zFgDByuxdTgy--1" edge="1">
          <mxGeometry relative="1" as="geometry">
            <mxPoint x="-20" y="390" as="sourcePoint" />
            <mxPoint x="140" y="390" as="targetPoint" />
          </mxGeometry>
        </mxCell>
      </root>
    </mxGraphModel>
  </diagram>
</mxfile>
